<svg xmlns="http://www.w3.org/2000/svg" viewBox="0 0 448 448"><defs><style>.cls-1{fill:#4492cc;}.cls-2{fill:#235175;}</style></defs><title>Asset 2</title><g id="Layer_2" data-name="Layer 2"><g id="Layer_1-2" data-name="Layer 1"><path class="cls-1" d="M59.8,63.9H388V392.1H59.8Z"/><path class="cls-2" d="M400,0H48A48,48,0,0,0,0,48V400a48,48,0,0,0,48,48H400a48,48,0,0,0,48-48V48A48,48,0,0,0,400,0ZM277.3,383.7c-8.4,1.5-11.5-3.7-11.5-8,0-5.4.2-33,.2-55.3,0-15.6-5.2-25.5-11.3-30.7,37-4.1,76-9.2,76-73.1,0-18.2-6.5-27.3-17.1-39,1.7-4.3,7.4-22-1.7-45-13.9-4.3-45.7,17.9-45.7,17.9a157.31,157.31,0,0,0-83.2,0s-31.8-22.2-45.7-17.9c-9.1,22.9-3.5,40.6-1.7,45-10.6,11.7-15.6,20.8-15.6,39,0,63.6,37.3,69,74.3,73.1-4.8,4.3-9.1,11.7-10.6,22.3-9.5,4.3-33.8,11.7-48.3-13.9A34.84,34.84,0,0,0,109.9,281c-16.2-.2-1.1,10.2-1.1,10.2,10.8,5,18.4,24.2,18.4,24.2,9.7,29.7,56.1,19.7,56.1,19.7,0,13.9.2,36.5.2,40.6,0,4.3-3,9.5-11.5,8C106,361.6,59.8,298.8,59.8,225.4c0-91.8,70.2-161.5,162-161.5S388,133.6,388,225.4C388.1,298.8,343.3,361.7,277.3,383.7Zm-98.1-61.1c-1.9.4-3.7-.4-3.9-1.7-.2-1.5,1.1-2.8,3-3.2,1.9-.2,3.7.6,3.9,1.9s-1,2.6-3,3Zm-9.5-.9c0,1.3-1.5,2.4-3.5,2.4-2.2.2-3.7-.9-3.7-2.4,0-1.3,1.5-2.4,3.5-2.4C167.9,319.1,169.7,320.2,169.7,321.7ZM156,320.6c-.4,1.3-2.4,1.9-4.1,1.3-1.9-.4-3.2-1.9-2.8-3.2s2.4-1.9,4.1-1.5c2,.6,3.3,2.1,2.8,3.4Zm-12.3-5.4c-.9,1.1-2.8.9-4.3-.6-1.5-1.3-1.9-3.2-.9-4.1.9-1.1,2.8-.9,4.3.6C144.1,312.4,144.6,314.4,143.7,315.2Zm-9.1-9.1c-.9.6-2.6,0-3.7-1.5s-1.1-3.2,0-3.9c1.1-.9,2.8-.2,3.7,1.3C135.7,303.5,135.7,305.3,134.6,306.1Zm-6.5-9.7c-.9.9-2.4.4-3.5-.6-1.1-1.3-1.3-2.8-.4-3.5.9-.9,2.4-.4,3.5.6C128.8,294.2,129,295.7,128.1,296.4Zm-6.7-7.4c-.4.9-1.7,1.1-2.8.4-1.3-.6-1.9-1.7-1.5-2.6.4-.6,1.5-.9,2.8-.4C121.2,287.1,121.8,288.2,121.4,289Z"/></g></g></svg>