<svg viewBox="0 0 36.1 36" xmlns="http://www.w3.org/2000/svg"><path d="m33.4 0h-30.7a2.67 2.67 0 0 0 -2.7 2.6v30.8a2.67 2.67 0 0 0 2.7 2.6h30.7a2.67 2.67 0 0 0 2.7-2.6v-30.8a2.67 2.67 0 0 0 -2.7-2.6z" fill="#235175"/><path d="m5.4 13.5h5.3v17.2h-5.3zm2.7-8.5a3.1 3.1 0 1 1 -3.1 3.1 3.05 3.05 0 0 1 3.1-3.1" fill="#4492cc"/><path d="m14.1 13.5h5.1v2.3h.1a5.6 5.6 0 0 1 5.1-2.8c5.4 0 6.4 3.6 6.4 8.2v9.4h-5.3v-8.4c0-2 0-4.6-2.8-4.6s-3.2 2.2-3.2 4.4v8.5h-5.3z" fill="#4492cc"/><path d="m0 0h36v36h-36z" fill="none"/></svg>